<?xml version="1.0" encoding="UTF-8" standalone="no"?>
<svg
   xmlns:dc="http://purl.org/dc/elements/1.1/"
   xmlns:cc="http://creativecommons.org/ns#"
   xmlns:rdf="http://www.w3.org/1999/02/22-rdf-syntax-ns#"
   xmlns:svg="http://www.w3.org/2000/svg"
   xmlns="http://www.w3.org/2000/svg"
   viewBox="0 0 296 188"
   height="188"
   width="296"
   xml:space="preserve"
   id="svg2"
   version="1.1"><metadata
     id="metadata8"><rdf:RDF><cc:Work
         rdf:about=""><dc:format>image/svg+xml</dc:format><dc:type
           rdf:resource="http://purl.org/dc/dcmitype/StillImage" /></cc:Work></rdf:RDF></metadata><defs
     id="defs6" /><g
     transform="matrix(1.3333333,0,0,-1.3333333,0,188)"
     id="g10"><g
       transform="scale(0.1)"
       id="g12"><path
         id="path14"
         style="fill:#51b5e6;fill-opacity:1;fill-rule:evenodd;stroke:none"
         d="m 1413.91,182.809 c -32,-14.688 -61.64,-30.348 -88.99,-46.989 -27.65,-16.679 -52.5,-34.019 -74.49,-52.0309 16.64,22.6909 38.01,44.3319 63.98,64.9999 26.33,20.66 56.18,38.672 89.5,54.02 33.67,15 67.18,25.671 100.5,31.992 33.01,6.019 64.03,8.32 93.01,7 -28.32,-5.672 -58.01,-13.321 -88.98,-23.012 -31.02,-9.648 -62.5,-21.641 -94.53,-35.98 m -208.48,22.5 c 13.01,31.64 30.82,62.66 53.48,93.011 23.36,30 49.02,55.66 77.03,76.989 27.65,21.64 55.82,38.011 84.49,48.992 -24.69,-17 -49.02,-37.352 -73.01,-60.981 -24.33,-23.359 -47.5,-49.34 -69.49,-78.011 -21.99,-29.02 -41.02,-58.008 -56.99,-86.989 -16.02,-29.019 -29.53,-57.031 -40.51,-84.019 3.98,28.668 12.34,59.019 25,91.008 m -94.02,-42.5 c -3.32,28.992 -2.66,60.16 2.03,93.48 4.33,33.359 13.63,67.34 27.97,102.031 14.68,33.981 32.5,64.649 53.51,91.989 21.02,27.351 43.67,50 68.01,68.011 -18.67,-23.011 -36.33,-48.672 -53.01,-77.031 -16.99,-28.32 -32.5,-58.828 -46.48,-91.488 -13.67,-32.653 -24.69,-64.84 -33.01,-96.481 -8.36,-31.679 -14.69,-61.84 -19.02,-90.511 m -52,-1.989 c -4.33,28.629 -10.5,58.828 -18.47,90.469 -8.36,31.68 -19.34,63.871 -33.01,96.52 -14.02,32.66 -29.489,63.171 -46.52,91.492 -16.64,28.359 -34.34,54.019 -52.969,76.988 23.981,-17.969 46.481,-40.668 67.5,-67.969 20.969,-27.34 38.829,-58.011 53.469,-92.031 14.34,-34.648 23.68,-68.629 28.01,-101.988 4.65,-33.321 5.35,-64.5 1.99,-93.481 m -166.48,122.5 c -21.989,28.629 -45,54.649 -69.02,77.969 -24.34,23.672 -48.64,44.02 -72.969,61.012 28.321,-11.012 56.481,-27.34 84.489,-48.981 27.66,-21.371 53.16,-47.031 76.48,-77.031 23.012,-30.309 40.86,-61.328 53.52,-92.969 13.011,-32.031 21.332,-62.34 25,-91.019 -11.02,27 -24.489,55 -40.508,83.988 -16.012,29.02 -35,58.012 -56.992,87.031 M 846.41,133.789 c -27.66,16.68 -57.5,32.34 -89.5,47.031 -31.988,14.34 -63.469,26.328 -94.488,35.981 -31.012,9.679 -60.66,17.34 -88.981,23 28.981,1.328 60.149,-1.012 93.469,-6.992 33.36,-6.329 66.68,-16.989 100,-31.989 33.68,-15.351 63.52,-33.359 89.5,-54.019 26.012,-20.672 47.34,-42.352 64.02,-65.0002 -21.989,18 -46.68,35.3472 -74.02,51.9882 m 673.51,146.012 c -20,-3.981 -38.16,-8.672 -54.49,-13.981 -16.02,-5.66 -30.16,-11.371 -42.5,-17.031 -11.99,-5.98 -21.99,-11.129 -30,-15.469 -8.01,-4.691 -13.83,-8.16 -17.5,-10.511 -28.67,-17.649 -55.51,-36.52 -80.51,-56.52 -25.35,-20 -49.33,-40.469 -71.99,-61.488 8.32,17 18.32,33.679 30,50 11.64,16.328 25,32 40,47 -0.66,-0.321 -1.33,-0.672 -1.99,-0.981 5,3.981 10,8.16 15,12.5 3.32,2.969 6.48,5.821 9.49,8.481 18.67,16.32 36.64,34.019 53.98,53 12.66,13.988 25,28.828 37,44.5 l 18.51,24.019 c 6.02,7.969 12.35,16.328 18.99,25 13.36,16.641 27.69,32.5 43,47.5 15.67,14.649 32.66,27.149 51.02,37.5 18.32,10.309 37.34,16.989 56.99,20 19.65,2.969 38.17,2.5 55.51,-1.519 -38.01,10 -74.18,14.488 -108.52,13.508 -34.33,-0.661 -66.17,-5 -95.5,-13.008 -32.31,-10.352 -60.82,-23.321 -85.47,-38.981 -16.37,-10 -30.67,-20.199 -43.01,-30.511 -12.34,-10.348 -22.85,-20.149 -31.52,-29.489 -8.64,-9.019 -15.67,-16.84 -20.98,-23.519 -5.35,-6.68 -9.18,-11.68 -11.52,-15 -37.31,-51.012 -67.15,-103.321 -89.5,-156.992 0,28.992 5,58.671 15,88.992 10,30.66 25.16,59.84 45.51,87.5 3.99,6.008 12.85,16.679 26.49,31.988 5.35,9.691 9.68,19.84 13,30.512 3.36,10.66 6.18,21.828 8.52,33.508 l 8.01,38.48 c 2.65,13.672 6.64,27.691 11.99,42.031 5.31,13.981 12.15,27.149 20.51,39.489 8.32,12.66 18.16,23.671 29.49,33.011 10.98,9.34 22.81,16.641 35.51,21.989 12.3,5.312 24.49,8.671 36.48,10 -30.35,-0.661 -58.16,-5.508 -83.51,-14.489 -17.97,-8.011 -34.65,-17.031 -50,-27.031 -17.31,-11.328 -32.82,-23.32 -46.49,-35.98 -13.98,-13.008 -26.33,-26.008 -36.99,-39.02 -10.66,-12.969 -19.84,-25.469 -27.5,-37.5 -7.34,-12.309 -13.67,-23.48 -19.02,-33.48 -10,-20.348 -16.14,-34.02 -18.48,-41.008 -20.66,-52 -36.17,-103.172 -46.52,-153.481 -0.32,0.981 -0.47,1.989 -0.47,2.969 -0.35,-1.641 -0.67,-3.32 -1.02,-5 -10.66,50.352 -26.33,101.52 -46.99,153.512 -2.34,7 -8.52,20.668 -18.52,41.019 -5,10 -11.32,21.129 -18.98,33.481 -7.66,11.988 -16.84,24.488 -27.5,37.5 -10.66,13 -22.848,26.008 -36.52,39.019 -13.988,12.66 -29.5,24.649 -46.488,35.981 -13.012,8.359 -26.684,15.859 -41.012,22.5 -27.308,11.679 -58.32,18 -92.969,19.019 11.989,-1.679 24.329,-5 36.989,-10 12.34,-5.351 24.14,-12.699 35.511,-22.031 10.969,-9.34 20.661,-20.309 28.981,-32.969 8.668,-12.34 15.668,-25.511 21.019,-39.531 5,-14.34 8.981,-28.32 11.989,-41.988 l 7.5,-38.481 c 2.34,-11.679 5.16,-22.851 8.48,-33.519 3.36,-11.012 7.692,-21.172 13,-30.5 13.68,-15.321 22.5,-25.981 26.531,-32 20.661,-27.653 35.821,-56.832 45.469,-87.5 10,-30.352 15,-60 15,-88.981 -22.308,53.629 -52,105.981 -88.988,156.989 -2.344,3.32 -6.172,8.32 -11.481,15 -5.671,6.64 -12.851,14.492 -21.531,23.48 -8.672,9.332 -19.14,19.18 -31.48,29.531 -12.34,10.309 -26.68,20.469 -43.008,30.469 -24.332,15.66 -52.5,28.672 -84.492,39.02 -29.692,8.011 -61.68,12.351 -96.02,13.011 -34.332,0.981 -70.66,-3.519 -108.98,-13.519 17.34,3.988 35.82,4.5 55.511,1.488 19.649,-2.969 38.829,-9.648 57.5,-20 18.321,-10.309 35.149,-22.809 50.469,-37.5 15.66,-15 30,-30.82 43,-47.5 6.68,-8.629 13.168,-16.988 19.5,-25 l 18,-23.988 c 12.352,-15.66 24.692,-30.5 37,-44.492 17.692,-19.329 35.66,-36.989 54.02,-53.008 3.32,-2.653 6.48,-5.352 9.492,-8 5,-4.653 10,-8.992 15,-13.012 -0.66,0.352 -1.332,0.66 -1.992,1.012 30.308,-30.352 53.672,-62.653 70,-96.992 -22.34,20.98 -46.168,41.492 -71.52,61.492 -25.32,20 -52.148,38.82 -80.469,56.519 -3.671,2.301 -9.531,5.821 -17.5,10.469 -8.011,4.332 -18.171,9.531 -30.511,15.512 -11.989,5.66 -26.168,11.32 -42.5,16.988 -16.328,5.352 -34.34,10 -54.02,14.02 -20,3.671 -41.14,5.82 -63.48,6.492 -22.66,0.66 -46.02,-0.821 -70,-4.5 -14.692,-2.34 -29.18,-5.5 -43.52,-9.492 -23,-6.68 -45.308,-16.008 -66.988,-28.008 -21.992,-11.992 -42.852,-27.34 -62.5,-46.012 11.988,6.371 25,11.371 38.988,15 14.02,3.672 28.668,5.66 44.02,6.012 31.992,0 63.832,-5.153 95.511,-15.5 15.969,-5 31.637,-10.981 46.989,-18.012 7.66,-3.32 15.308,-6.84 23.011,-10.469 3.629,-2.031 7.5,-4.019 11.481,-6.019 l 11.488,-6.481 c 28.668,-17.34 58,-33.672 88,-49.019 61.328,-30.3205 123.52,-48.3205 186.531,-53.9924 31.329,-2.6484 61.829,-2.5 91.481,0.5117 29.998,2.9688 58.518,7.9688 85.508,15 -4.69,-2.3398 -9.34,-4.3398 -14.02,-6.0195 14.68,3.6797 26.01,7.1484 34.02,10.5078 7.66,-2.6484 17.34,-5.5078 28.98,-8.5078 -4.64,1.6797 -9.33,3.668 -13.98,6.0078 27.34,-6.9883 55.82,-11.9883 85.51,-15 29.65,-3.0078 60.15,-3.1602 91.48,-0.5078 63.01,5.668 125.16,23.6797 186.49,53.9882 30,15.352 59.53,31.68 88.51,49.02 l 11.02,6.492 c 3.98,1.988 7.97,4.019 11.99,6.008 7.34,3.671 15,7.152 23.01,10.511 15.31,6.989 30.82,12.969 46.48,17.969 31.99,10.352 63.83,15.512 95.51,15.512 15.31,-0.321 30,-2.352 43.98,-5.981 14.03,-3.672 27,-8.672 39.03,-15 -19.69,18.629 -40.35,33.981 -62.03,45.981 -22,11.988 -44.34,21.32 -67,28 -14.64,3.988 -29.33,7.148 -43.98,9.5 -24.02,3.668 -47.19,5.148 -69.49,4.488 -22.7,-0.668 -43.87,-2.809 -63.52,-6.488 m -434.49,222.5 c 1.64,7.347 4.14,14.847 7.5,22.5 6.99,17 16.48,31.488 28.48,43.519 12.03,12.301 24.84,21.481 38.51,27.5 -16.99,-23.011 -31.83,-49.531 -44.49,-79.531 -10.35,-25 -19.02,-48.988 -26.02,-71.988 -0.66,-5.981 -1.83,-11.641 -3.47,-17 0,1.328 -0.2,2.5 -0.51,3.519 -0.35,-0.66 -0.51,-1.172 -0.51,-1.519 -0.66,3 -1.33,5.859 -1.99,8.508 -7.34,24.339 -16.33,49.851 -26.99,76.492 -13.01,30 -27.85,56.519 -44.53,79.488 13.67,-5.98 26.36,-15.16 38,-27.5 12,-11.988 21.68,-26.488 29.03,-43.48 2.65,-6.989 5,-13.829 6.99,-20.508 m -10.51,258.519 c -2.65,-14.019 -8.01,-27.5 -16.01,-40.511 -7.66,-13.008 -16.14,-25.348 -25.47,-36.989 -9.03,-12.031 -17.19,-24.019 -24.53,-36.019 -7.31,-11.992 -12.308,-24.332 -15,-36.992 -2.66,-13.008 -3.48,-26.008 -2.5,-39.02 1.68,-15.668 5.66,-30.309 12.03,-43.988 20,-25.352 35,-47.852 45,-67.5 10.97,-21.68 17.81,-36.321 20.47,-43.981 7.34,-19.019 12.85,-38.16 16.52,-57.5 3.32,20 8.98,39.801 16.99,59.489 2.35,7.66 9.18,22.351 20.51,43.992 5.98,11.988 13.98,25.347 23.98,40 0,-0.321 0,-0.512 0,-0.512 0,0.352 0.16,0.66 0.51,1.012 3.01,4.34 6.17,8.828 9.49,13.519 10.36,16.641 16.33,35.16 18.01,55.469 1.33,13.012 0.67,26.012 -1.99,39.02 -3.01,12.66 -8.01,25 -15,36.992 -7.34,12 -15.66,23.988 -25,36.019 -9.02,11.641 -17.5,23.981 -25.51,36.989 -7.65,13.011 -13.01,26.492 -16.01,40.511 -1.64,11.328 -1.64,22.149 0,32.5 -2.66,12.66 -4.5,25.469 -5.47,38.481 h -2.03 c -0.98,-15.672 -3.64,-30.672 -7.97,-45 0.97,-8.321 0.66,-17 -1.02,-25.981" /><path
         id="path16"
         style="fill:#262e73;fill-opacity:1;fill-rule:evenodd;stroke:none"
         d="m 1209.92,441.801 c -16.99,-28.321 -32.5,-58.832 -46.48,-91.492 -13.67,-33.008 -24.69,-65.348 -33.01,-96.989 -8.36,-31.371 -14.69,-61.371 -19.02,-90 -3.32,28.629 -2.66,59.801 2.03,93.481 4.33,33.359 13.63,67.179 27.97,101.519 14.68,34.34 32.5,65.16 53.51,92.5 21.02,26.989 43.52,49.489 67.5,67.5 -18.32,-22.699 -35.82,-48.16 -52.5,-76.519 m 68.01,-156.492 c -21.99,-28.668 -41.02,-57.5 -56.99,-86.52 -16.02,-29.34 -29.53,-57.5 -40.51,-84.488 3.98,29.019 12.34,59.328 25,91.008 13.01,31.992 30.82,63.171 53.48,93.48 23.36,30 49.02,55.66 77.03,77.031 27.65,21.328 55.82,37.66 84.49,48.981 -24.69,-17.34 -49.02,-37.653 -73.01,-61.012 -24.33,-23.32 -47.5,-49.488 -69.49,-78.48 m 319.49,-43.008 c -28.32,-6.012 -58.01,-13.821 -88.98,-23.512 -31.02,-9.34 -62.5,-21.129 -94.53,-35.469 -32,-14.691 -61.64,-30.511 -88.99,-47.5 -27.65,-16.679 -52.5,-33.871 -74.49,-51.5192 16.64,22.6482 38.01,44.3282 63.98,65.0002 26.33,20.66 56.18,38.668 89.5,54.019 33.67,15 67.18,25.469 100.5,31.481 33.01,6.019 64.03,8.519 93.01,7.5 m 298.01,-70 c 5.66,-13 7.66,-26.481 5.98,-40.5 -2,-13.992 -7.31,-26.18 -15.98,-36.4924 -8.67,-11.3281 -19.69,-19.0195 -33.01,-23.0078 -13.01,-3.9805 -25.66,-4.4922 -38.01,-1.4805 -12.34,2.9688 -23,7.9688 -31.99,15 -9.33,6.6406 -16.01,15.1597 -20,25.4687 -3.32,10.66 -3.01,20.66 1.02,30 3.63,8.672 8.98,15.66 15.97,21.012 7.35,5.359 14.85,8.32 22.5,8.988 7.66,1.012 14.34,0.352 20,-1.988 6.02,-2.352 10.67,-5.16 14.03,-8.481 6.33,-7.031 9.8,-12.34 10.47,-16.019 -2,3.32 -6.33,7.66 -12.97,13.008 -3.67,2.66 -8.01,4.652 -13.01,5.98 -5.35,1.371 -11.02,1.371 -16.99,0 -6.37,-0.98 -12.19,-3.828 -17.5,-8.48 -5,-4.688 -8.87,-10.508 -11.53,-17.5 -2.34,-7.34 -1.99,-14.688 1.02,-21.989 3.01,-7.34 8.48,-13.519 16.48,-18.5192 7.66,-5.3516 16.33,-8.9805 26.02,-11.0117 9.65,-1.6407 19.14,-0.8203 28.48,2.5 9.68,3.3593 17.34,9.0195 23,17.0309 6.33,8.629 10,17.969 11.02,27.969 0.98,10 -1.02,20 -6.02,30 -4.64,10 -11.17,19.332 -19.49,28.012 -8.32,8.668 -17.34,16.168 -26.99,22.5 -10.66,6.988 -21.68,13.508 -33.01,19.488 -31.68,16.68 -64.33,29.531 -98.01,38.512 -14.64,3.988 -29.33,7.148 -43.98,9.5 -24.02,3.668 -47.19,5.347 -69.49,5 -22.7,-0.672 -43.87,-3.012 -63.52,-7 -20,-3.672 -38.16,-8.321 -54.49,-13.981 -16.02,-5.66 -30.16,-11.371 -42.5,-17.031 -12.34,-5.668 -22.34,-10.82 -30,-15.469 -8.01,-4.34 -13.83,-7.699 -17.5,-10 -28.67,-17.699 -55.66,-36.519 -81.02,-56.519 -25,-20 -48.82,-40.672 -71.48,-62 16.33,34.34 39.65,66.679 70,97 -0.66,-0.321 -1.33,-0.512 -1.99,-0.512 5,4.02 10,8.16 15,12.5 3.32,3.012 6.48,5.859 9.49,8.512 18.67,16.019 36.64,33.679 53.98,53.008 12.66,13.992 25,28.832 37,44.492 l 18.51,23.519 c 6.02,8.321 12.35,16.641 18.99,25 13.36,16.989 27.69,32.809 43,47.5 15.67,14.649 32.66,27.149 51.02,37.5 18.32,10.309 37.34,17.149 56.99,20.469 19.65,3.012 38.17,2.34 55.51,-1.988 -17.66,-1.332 -34.69,-5.321 -51.02,-12 -16.64,-6.68 -32.14,-15.66 -46.48,-26.992 -14.69,-11.329 -28.52,-24.329 -41.52,-39.02 -12.97,-14.34 -25.82,-29.809 -38.48,-46.488 l -19.49,-23.981 c -6.68,-8.359 -13.52,-16.371 -20.51,-24.019 -5.35,-5.672 -10.86,-11.332 -16.52,-17 12.69,5.359 27.18,10.668 43.51,16.019 16.33,5 34.18,9.141 53.52,12.5 21.64,3.629 44.8,5.66 69.49,5.981 24.65,0 49.84,-2.153 75.51,-6.492 25.66,-4.688 51.13,-11.68 76.48,-21.008 25.35,-9.34 49.65,-20.672 73.01,-33.992 11.64,-6.68 23.01,-13.668 33.98,-21.008 6.33,-4.34 11.84,-8.832 16.53,-13.481 5.31,-4.34 10.15,-9.179 14.49,-14.531 9.34,-10 16.84,-21.328 22.5,-33.988 m -152.5,47 c 15.31,-0.321 30,-2.153 43.98,-5.512 14.03,-3.629 27,-8.828 39.03,-15.469 0.97,-0.351 1.83,-0.66 2.5,-1.019 -27.03,8.679 -55.2,11.179 -84.53,7.5 -29.34,-3.672 -58.17,-11.832 -86.49,-24.492 -14.33,-6.008 -28.67,-12.848 -43.01,-20.508 -6.99,-3.321 -13.98,-7.141 -20.97,-11.481 -3.67,-1.679 -7.19,-3.519 -10.51,-5.511 l -10,-6.52 c -14.02,-8.988 -28.52,-17.969 -43.52,-26.988 -15,-8.992 -30.5,-17.5002 -46.48,-25.5119 -32.34,-15.9805 -65.66,-28.3203 -100,-36.9883 -33.36,-8.0117 -66.17,-12 -98.52,-12 16.02,-1.3203 32.5,-2.3399 49.5,-3 41.36,-1.332 81.01,-0.6719 119.02,1.9883 38.01,2.3398 73.48,5.3515 106.48,9.0195 -31.64,-10.6602 -66.64,-19.1797 -105,-25.5078 -38,-6.3203 -78.47,-8.98049 -121.48,-8.00002 -42.66,1.67972 -83.01,7.64842 -121.02,18.00002 -35,10 -65.5,23.5195 -91.48,40.5078 -1.33,0.6719 -2.5,1.1719 -3.52,1.4922 -4.64,1.9883 -9.33,4.0195 -13.98,6.0078 27.34,-6.6797 55.82,-11.5195 85.51,-14.4883 29.65,-3.0117 60.15,-3.3594 91.48,-1.0195 63.01,5.668 125.16,23.8281 186.49,54.5002 30,15.347 59.53,31.679 88.51,49.019 l 11.02,5.981 c 3.98,2.34 7.97,4.328 11.99,6.008 7.34,3.992 15,7.66 23.01,10.98 15.31,6.68 30.82,12.5 46.48,17.5 31.99,10.66 63.83,15.859 95.51,15.512 m -400,384.488 c 10.98,9.332 22.81,16.52 35.51,21.52 12.3,5.312 24.49,8.832 36.48,10.511 -20.35,-13.011 -38.16,-29.179 -53.51,-48.519 -14.65,-19.641 -26.64,-42.141 -35.98,-67.5 -5,-13 -9.49,-25.821 -13.52,-38.512 -4.33,-12.969 -9.14,-25.668 -14.49,-37.969 -4.33,-9.34 -9.18,-18.16 -14.49,-26.519 16.33,14.679 36.48,29.179 60.51,43.508 17.65,10.671 37.5,20.312 59.49,28.992 21.64,8.359 44.65,15 68.98,20 24.69,5 50,7.847 76.02,8.508 25.98,0.671 51.84,-0.508 77.5,-3.508 6.64,-0.981 13.16,-2 19.49,-3.012 6.99,-0.98 13.67,-2.5 20,-4.488 12.66,-3.68 25,-8.481 36.99,-14.5 12,-5.66 23.01,-13.321 33.01,-23 9.65,-10 16.02,-21.84 18.99,-35.512 2.34,-13.629 1.01,-26.488 -3.99,-38.48 -5,-11.989 -12.65,-21.829 -23.01,-29.489 -10.31,-7.699 -21.48,-12.191 -33.47,-13.519 -12.03,-1.68 -23.36,-1.012 -34.03,2 -11.32,3 -20.5,8.668 -27.5,16.988 -6.64,8.359 -10,17.34 -10,27.031 0,8.981 1.84,17.149 5.51,24.489 4.34,6.992 9.65,12.351 16.02,15.98 6.33,3.672 12.5,5.66 18.47,6.012 6.02,0.359 11.33,-0.153 16.02,-1.481 8.32,-3.359 13.83,-6.519 16.48,-9.531 -3.67,2.031 -9.49,3.871 -17.5,5.512 -4.33,0.66 -8.98,0.5 -13.98,-0.512 -5,-0.668 -10,-2.809 -15,-6.488 -4.69,-3.321 -8.52,-7.852 -11.52,-13.512 -2.31,-5.98 -3.32,-12.66 -2.97,-20 0.66,-7.309 3.63,-13.828 8.98,-19.488 5.35,-5.321 12.35,-8.992 21.02,-10.981 8.63,-2.031 17.65,-2.191 26.99,-0.511 9.34,1.64 17.66,5.511 25,11.492 7.34,6.008 12.66,13.508 15.98,22.5 3,9.328 3.67,18.668 2.03,28 -2.35,9.34 -7.35,17.5 -15,24.5 -7.7,7.34 -16.84,13.359 -27.5,18 -10.35,4.648 -21.37,8.519 -33.01,11.488 -5.66,1.68 -11.33,2.852 -16.99,3.512 -6.02,0.668 -12.19,1.328 -18.52,2 -24.65,2.34 -49.18,2.847 -73.51,1.519 -23.99,-1.371 -47.31,-4.531 -70,-9.531 -11.33,-2.66 -22.15,-5.668 -32.5,-8.988 -32.31,-10.352 -60.82,-23.16 -85.47,-38.512 -16.37,-10 -30.67,-20.16 -43.01,-30.469 -12.34,-10.351 -22.85,-20.199 -31.52,-29.531 -8.64,-9.34 -15.67,-17.309 -20.98,-23.988 -5.35,-6.68 -9.18,-11.68 -11.52,-15 -37.31,-50.66 -67.15,-103 -89.5,-156.992 0,29.339 5,59.14 15,89.492 10,30.359 25.16,59.34 45.51,87 3.99,6.32 12.85,16.988 26.49,31.988 5.35,9.691 9.68,19.84 13,30.512 3.36,10.66 6.18,21.828 8.52,33.508 l 8.01,38.48 c 2.65,14.02 6.64,28.012 11.99,42.031 5.31,14.34 12.15,27.66 20.51,40 8.32,12.301 18.16,23.321 29.49,32.969 m -313.52,-247.5 c 14.34,-34.34 23.68,-68.168 28.01,-101.488 4.65,-33.672 5.35,-64.84 1.99,-93.512 -4.33,28.672 -10.5,58.672 -18.47,90 -8.36,31.68 -19.34,64.02 -33.01,97.031 -14.02,32.66 -29.489,63.16 -46.52,91.481 -17,28.32 -34.648,53.828 -52.969,76.488 23.981,-17.969 46.481,-40.469 67.5,-67.5 20.969,-27.309 38.829,-58.168 53.469,-92.5 M 965.43,203.32 c 13.011,-31.679 21.332,-62.031 25,-91.019 -11.02,27 -24.489,55.16 -40.508,84.5 -16.012,29.019 -35,57.847 -56.992,86.519 -21.989,28.981 -45,55.16 -69.02,78.481 -24.34,23.359 -48.64,43.668 -72.969,61.008 28.321,-11.329 56.481,-27.649 84.489,-49.02 27.66,-21.328 53.16,-46.988 76.48,-76.988 23.012,-30.672 40.86,-61.84 53.52,-93.481 m -45,-121.0192 c -21.989,17.6601 -46.68,34.8472 -74.02,51.4882 -27.66,17.031 -57.5,32.691 -89.5,47.031 -31.988,14.649 -63.469,26.641 -94.488,35.981 -31.012,9.679 -60.66,17.5 -88.981,23.508 28.981,1.332 60.149,-1.168 93.469,-7.5 33.36,-6.008 66.68,-16.52 100,-31.52 33.68,-15.309 63.52,-33.32 89.5,-53.988 26.012,-20.66 47.34,-42.34 64.02,-65.0002 M 517.93,279.801 c -14.692,-2.34 -29.18,-5.5 -43.52,-9.492 -33.98,-9.02 -66.832,-21.989 -98.469,-39.02 -11.019,-5.668 -22.031,-11.988 -33.011,-18.988 -9.692,-6.321 -18.668,-13.821 -26.989,-22.5 -8.011,-8.672 -14.531,-18 -19.531,-28 -4.648,-9.653 -6.64,-19.653 -5.98,-30 0.98,-10 4.648,-19.34 10.98,-28.012 6.012,-7.9687 13.668,-13.6288 23,-16.9882 9.34,-3.3203 19.031,-4.1406 29.031,-2.5 9.649,1.9883 18.321,5.6601 25.969,11.0078 7.66,5.0004 13.168,11.1714 16.531,18.4804 2.649,7.34 2.809,14.691 0.469,22.031 -2.308,6.989 -6.14,12.809 -11.488,17.5 -5,4.649 -10.66,7.5 -16.992,8.481 -6.328,1.32 -11.989,1.32 -16.989,0 -5.351,-1.332 -9.851,-3.321 -13.519,-5.981 -6.684,-5.351 -11.012,-9.691 -13.012,-13.011 0.668,3.671 4.18,8.992 10.512,15.98 3.316,3.359 8.008,6.172 13.988,8.512 6.012,2.347 12.852,3.168 20.5,2.5 7.66,-1.012 15,-4.18 22,-9.492 7.031,-5.348 12.34,-12.34 16.012,-21.008 3.988,-9.34 4.34,-19.34 1.019,-30 -4.031,-10.3205 -10.671,-18.8322 -20,-25.5119 -9.031,-6.9883 -19.691,-11.9883 -32.031,-15 -12.308,-2.9688 -25,-2.5 -37.969,1.5195 -13.363,3.9922 -24.339,11.6406 -33.011,23.0117 -8.36,10.3087 -13.668,22.4997 -16.02,36.4807 -1.32,13.988 0.86,27.5 6.531,40.508 5.661,12.66 12.969,23.992 21.989,33.992 4.648,5.347 9.492,10.148 14.492,14.488 5,4.691 10.508,9.18 16.488,13.512 11.012,7.347 22.34,14.34 34.02,21.019 23.32,13.321 47.66,24.649 73.011,33.981 25.309,9.34 50.821,16.328 76.481,21.019 26.019,4.34 51.168,6.481 75.508,6.481 24.648,-0.352 47.808,-2.34 69.492,-6.012 19.34,-3.32 37.148,-7.5 53.519,-12.5 16.329,-5.309 30.969,-10.668 43.981,-15.98 -5.66,5.312 -11.172,10.98 -16.481,16.992 -7.351,7.66 -14.179,15.668 -20.511,23.988 l -19.489,24.531 c -13.011,16.328 -26.019,31.641 -39.031,45.981 -13,14.328 -26.64,27.34 -40.969,39.019 -14.691,10.981 -30.203,20 -46.531,26.989 -16.64,6.64 -33.82,10.671 -51.48,11.992 17.34,4.34 35.82,5 55.511,2 19.649,-3.321 38.829,-10 57.5,-20 18.321,-10.321 35.149,-23.012 50.469,-38.012 15.66,-14.648 30,-30.469 43,-47.5 6.68,-8.32 13.168,-16.641 19.5,-25 l 18,-23.48 c 12.352,-15.661 24.692,-30.508 37,-44.489 17.692,-19.34 35.66,-37.031 54.02,-53.011 3.32,-3.008 6.48,-5.86 9.492,-8.508 5,-4.34 10,-8.481 15,-12.5 -0.66,0 -1.332,0.148 -1.992,0.5 30.308,-30.352 53.672,-62.653 70,-96.992 -22.34,21.332 -46.168,41.992 -71.52,61.992 -25.32,20 -52.148,38.828 -80.469,56.488 -3.671,2.34 -9.531,5.66 -17.5,10 -8.011,4.691 -18.171,9.84 -30.511,15.512 -11.989,5.66 -26.168,11.32 -42.5,16.988 -16.328,5.66 -34.34,10.352 -54.02,14.02 -20,3.992 -41.14,6.332 -63.48,6.992 -22.66,0.359 -46.02,-1.321 -70,-5 m 550,-206.4807 c -4.69,-2.0312 -9.34,-4.0195 -14.02,-6.0195 -0.98,-0.3516 -2.15,-0.8203 -3.48,-1.4805 -12.66,-8.6719 -26.84,-16.3711 -42.5,-23.0117 -15.348,-6.6797 -31.68,-12.5 -49.02,-17.5 C 921.25,14.9609 880.941,8.98047 837.93,7.30078 795.27,6.28906 754.77,8.98047 716.41,15.3086 c -38.32,6.6406 -73.32,15.1602 -105,25.5117 33.36,-3.6719 69.02,-6.6797 107.031,-9.0195 37.969,-2.6602 77.649,-3.3203 118.981,-2 16.68,0.668 33.168,1.6797 49.488,3.0078 -32.648,0 -65.66,3.9922 -98.98,11.9922 -34.02,8.6797 -67.34,21.0195 -100,37 -16.02,8 -31.52,16.5195 -46.52,25.5002 -15,8.988 -29.34,18.008 -42.969,27 l -10.511,6.519 c -3.36,1.641 -6.68,3.481 -10,5.469 -7.34,4.02 -14.489,8.012 -21.52,12.031 -13.988,7.301 -28.172,13.981 -42.5,20 -28.64,12.66 -57.5,20.821 -86.488,24.489 -29.652,3.671 -58.012,1.171 -85,-7.5 1.019,0.312 1.84,0.671 2.5,0.98 11.988,6.68 25,11.832 38.988,15.512 14.02,3.359 28.668,5.148 44.02,5.5 31.992,0.359 63.832,-4.84 95.511,-15.5 15.969,-5 31.637,-10.821 46.989,-17.5 7.66,-3.68 15.308,-7.352 23.011,-10.981 3.629,-1.679 7.5,-3.672 11.481,-6.019 l 11.488,-6.012 c 28.668,-17.309 58,-33.629 88,-48.988 61.328,-30.6604 123.52,-48.8205 186.531,-54.4924 31.329,-2.3398 61.829,-1.9883 91.481,0.9805 29.648,3.0117 58.168,7.8515 85.508,14.5312 M 809.922,431.801 c -24.332,15.347 -52.5,28.16 -84.492,38.508 -10.66,3.32 -21.68,6.332 -33.008,8.992 -22.652,5 -46.172,8.16 -70.512,9.488 -24.332,1.371 -48.82,0.859 -73.469,-1.488 -6.371,-0.66 -12.5,-1.321 -18.519,-1.992 -5.352,-0.661 -11.012,-1.829 -16.992,-3.508 -11.328,-3.012 -22.34,-6.84 -33.008,-11.492 -10.66,-4.688 -19.652,-10.661 -26.992,-18.008 -7.66,-6.992 -12.66,-15.153 -15,-24.492 -1.989,-9.329 -1.52,-18.668 1.48,-28.008 3.36,-8.981 8.68,-16.481 16.02,-22.5 7.34,-6.012 15.66,-9.84 25,-11.481 9.34,-1.679 18.48,-1.519 27.5,0.469 8.672,2.031 15.66,5.66 20.98,11.012 5,5.668 7.852,12.148 8.512,19.5 0.668,7.34 -0.352,14.019 -3.012,20 -2.648,5.66 -6.48,10.148 -11.48,13.508 -4.692,3.671 -9.692,5.82 -15,6.492 -5,1.008 -9.489,1.168 -13.52,0.5 -8.32,-1.68 -14.14,-3.512 -17.5,-5.5 2.352,3 7.86,6.168 16.531,9.488 4.329,1.371 9.489,1.832 15.469,1.52 6.012,-0.348 12.18,-2.34 18.512,-6.008 6.68,-3.68 11.988,-8.992 16.019,-15.981 3.981,-7.34 5.821,-15.511 5.469,-24.531 0,-9.648 -3.32,-18.629 -10,-26.988 -7,-8.321 -15.98,-13.992 -27,-17 -10.969,-3 -22.34,-3.672 -33.98,-1.992 -11.989,1.332 -23.36,5.82 -34.02,13.48 -10.32,7.691 -17.969,17.5 -22.969,29.531 -4.691,11.989 -6.019,24.801 -4.031,38.481 3.012,13.668 9.5,25.5 19.5,35.5 9.68,9.34 20.5,17 32.5,23.008 12.031,5.98 24.328,10.82 37.031,14.492 6.329,2 12.969,3.519 20,4.5 6.637,1.008 13.161,1.988 19.489,3 25.98,3.32 51.84,4.5 77.5,3.519 25.98,-0.66 51.332,-3.519 75.98,-8.519 24.68,-5 47.852,-11.68 69.531,-20 21.637,-8.672 41.481,-18.321 59.489,-28.981 23.672,-14.34 43.672,-28.871 60,-43.519 -5.352,8.32 -10,17 -14.02,26.019 -5.672,12.66 -10.672,25.469 -15,38.481 -3.988,13 -8.32,25.859 -12.969,38.508 -9.339,25.312 -21.531,47.812 -36.531,67.5 -15,19.339 -32.808,35.511 -53.469,48.48 11.989,-1.641 24.329,-5.16 36.989,-10.469 12.34,-5 24.14,-12.191 35.511,-21.519 10.969,-9.34 20.661,-20.321 28.981,-33.012 8.668,-12.309 15.668,-25.668 21.019,-40 5,-13.988 8.981,-27.969 11.989,-41.988 l 7.5,-38.481 c 2.34,-11.679 5.16,-22.851 8.48,-33.519 3.36,-10.66 7.692,-20.821 13,-30.5 13.68,-15 22.5,-25.672 26.531,-32 20.661,-27.653 35.821,-56.68 45.469,-86.992 10,-30.348 15,-60.149 15,-89.489 -22.308,53.981 -52,106.328 -88.988,156.989 -2.344,3.32 -6.172,8.32 -11.481,15 -5.671,6.64 -12.851,14.652 -21.531,23.992 -8.672,9.328 -19.14,19.179 -31.48,29.488 -12.34,10.352 -26.68,20.512 -43.008,30.512 m 163.008,85.5 c 10.66,-13 19.84,-25.66 27.5,-38 7.66,-12 13.98,-23.012 18.98,-33.012 10,-20.309 16.18,-33.988 18.52,-40.98 20.66,-51.989 36.33,-103.36 46.99,-154.02 0.35,1.68 0.67,3.512 1.02,5.512 0,-1.332 0.15,-2.5 0.47,-3.481 10.35,50.66 25.86,101.989 46.52,153.981 2.34,7 8.48,20.668 18.48,41.019 5,10 11.36,20.981 19.02,32.969 7.66,12.34 16.84,25 27.5,38.012 10.66,13 23.01,25.859 36.99,38.508 13.67,13.011 29.18,25 46.49,35.98 15.35,10.352 32.03,19.332 50,27.031 21.36,9.649 43.67,16.989 67.03,21.989 9.65,2.351 20,3.48 30.97,3.48 10.67,0.66 21.02,0 31.02,-1.988 10,-1.641 18.83,-5 26.48,-10 7.66,-4.653 13.36,-10.981 17,-18.992 3.36,-8.36 4.68,-16.68 4.02,-25 -1.02,-8.36 -4.18,-15.86 -9.49,-22.5 -5,-6.68 -11.37,-11.68 -19.03,-15 -7.65,-3.668 -15.5,-5.661 -23.47,-6.008 -7.7,0 -14.53,1.828 -20.51,5.5 -5.66,3.679 -9.69,8.679 -11.99,15 -1.37,2.66 -2.35,5.668 -3.01,8.988 -0.35,2.691 -0.35,5.512 0,8.512 0.66,5.668 2.66,10.508 5.98,14.5 3,4.328 6.52,7.5 10.5,9.488 4.03,2.34 7.86,3.871 11.53,4.531 7.65,0.66 13.16,0.821 16.48,0.469 -3.01,1.68 -8.51,2.691 -16.48,3.012 -4.34,0 -9.03,-0.981 -14.03,-3.012 -5,-1.988 -9.64,-5.309 -13.98,-10 -4.34,-4.648 -7.34,-10.469 -9.02,-17.5 -0.98,-3.629 -1.14,-7.5 -0.47,-11.488 0,-3.672 0.66,-7.34 1.99,-11.012 2.34,-7.969 7.34,-15 15,-20.98 8.01,-6.008 17.34,-9.02 28.01,-9.02 10,-0.309 20,1.52 30,5.512 9.65,4.019 18.32,10.148 25.97,18.508 7.35,8.671 12,18.832 14.03,30.511 1.64,11.328 0.31,22.66 -4.03,33.981 -4.33,11.328 -11.99,20.82 -23,28.519 -10.32,6.989 -21.64,11.641 -33.99,13.981 -11.68,2.66 -23.51,3.988 -35.51,3.988 -11.99,0 -24.14,-1.129 -36.48,-3.48 -23.01,-4.329 -45.16,-10.661 -66.52,-19.02 -21.64,-8.32 -41.84,-18.32 -60.47,-30 -27.03,-16.641 -50.2,-35 -69.53,-55 0.66,2.031 1.36,4.02 2.03,6.012 4.33,15 5.66,30.82 3.98,47.5 -1.01,8.008 -2.85,16.179 -5.51,24.5 -1.32,4.019 -3,8 -5,11.988 -1.64,3.672 -3.67,7.34 -5.97,11.012 -9.03,14.648 -18.67,27.5 -29.03,38.519 -10.66,11.328 -20.5,22.149 -29.49,32.5 -9.33,10 -16.99,20.66 -23.01,31.989 -5.66,11.332 -9.33,23.171 -10.97,35.511 -0.67,-2.34 -1.37,-4.84 -2.03,-7.5 -1.64,-10 -1.64,-20.66 0,-32.031 3,-13.988 8.36,-27.66 16.01,-40.98 8.01,-12.649 16.49,-25 25.51,-36.989 9.34,-11.679 17.66,-23.672 25,-36.019 6.99,-11.68 11.99,-23.981 15,-36.992 2.66,-13.008 3.32,-26.008 1.99,-39.02 -1.68,-20 -7.65,-38.48 -18.01,-55.469 -3.32,-4.34 -6.48,-8.672 -9.49,-13.011 -0.35,-0.348 -0.51,-0.661 -0.51,-1.008 -10,-14.653 -18,-28.012 -23.98,-40 -11.33,-21.641 -18.16,-36.18 -20.51,-43.481 -8.01,-19.691 -13.67,-39.691 -16.99,-60 -3.67,19.649 -9.18,38.981 -16.52,57.969 -2.66,7.34 -9.5,21.832 -20.47,43.512 -10,20 -25,42.5 -45,67.5 -6.37,13.988 -10.35,28.679 -12.03,43.988 -0.98,13.012 -0.16,26.012 2.5,39.02 2.692,13.011 7.69,25.312 15,36.992 7.34,12.347 15.5,24.34 24.53,36.019 9.33,11.989 17.81,24.34 25.47,36.989 8,13.32 13.36,26.992 16.01,40.98 1.68,9.02 1.99,17.691 1.02,26.012 -0.35,4.648 -1.17,9.179 -2.5,13.519 -1.68,-12.34 -5.51,-24.179 -11.53,-35.511 -5.97,-11.329 -13.47,-21.989 -22.5,-31.989 -8.98,-10.351 -18.82,-21.172 -29.49,-32.5 -10.35,-11.019 -20.15,-23.871 -29.49,-38.519 -1.989,-3.321 -4.02,-6.992 -6.02,-11.012 -1.64,-3.988 -3.16,-7.969 -4.488,-11.988 -3.012,-8.321 -4.84,-16.492 -5.512,-24.5 -1.64,-14.641 -0.82,-28.672 2.5,-41.992 0.36,-1.68 0.86,-3.508 1.531,-5.508 0.309,-1.012 0.469,-1.832 0.469,-2.5 -0.32,0.668 -0.98,1.328 -2,2 -17.648,16.988 -38.16,32.847 -61.48,47.5 -19.02,11.679 -39.18,21.679 -60.508,30 -21.684,8.359 -43.981,14.679 -66.992,19.019 -12.34,2.66 -24.34,3.828 -36.02,3.481 -11.988,0 -23.98,-1.332 -35.969,-3.992 -12.031,-2.34 -23.363,-6.989 -34.031,-14.02 -10.66,-7.66 -18.32,-17.148 -23,-28.48 -4.34,-11.329 -5.672,-22.848 -3.988,-34.489 1.988,-11.371 6.84,-21.371 14.488,-30 7.352,-8.359 16.02,-14.531 26.02,-18.519 9.648,-3.981 19.648,-5.821 30,-5.5 10.308,0.347 19.492,3.359 27.5,9.019 7.66,5.981 12.66,12.969 15,20.981 1.332,3.668 2.148,7.34 2.5,11.008 0.308,3.992 0.16,7.812 -0.508,11.492 -1.992,6.988 -5.152,12.847 -9.492,17.5 -4.34,4.679 -9.02,8 -14.02,10 -5,1.988 -9.5,3 -13.48,3 -8.36,-0.352 -14.02,-1.321 -16.989,-3 3.629,0.347 9.137,0.148 16.481,-0.512 3.668,-0.668 7.5,-2.148 11.488,-4.488 4.02,-2 7.692,-5.16 11.012,-9.5 3.008,-3.981 4.848,-8.821 5.508,-14.492 0.66,-3.008 0.66,-5.86 0,-8.508 -0.66,-3.321 -1.52,-6.332 -2.5,-8.992 -2.66,-6.329 -6.84,-11.329 -12.5,-15 -5.66,-3.668 -12.5,-5.508 -20.508,-5.508 -7.652,0.359 -15.352,2.347 -23.012,6.019 -7.648,3.629 -14.14,8.629 -19.488,15 -5,6.641 -8.012,14.141 -8.981,22.5 -1.019,8.321 0.309,16.641 3.981,25 3.316,7.969 8.828,14.34 16.488,18.981 7.692,5 16.68,8.32 27.031,10 9.649,1.679 19.797,2.347 30.469,2 11.012,0 21.52,-1.18 31.52,-3.481 26.64,-6.019 51.992,-14.691 75.98,-26.019 14.68,-6.992 28.36,-14.641 41.012,-23 16.988,-10.981 32.5,-23.012 46.488,-35.981 13.672,-12.699 25.86,-25.511 36.52,-38.519 m 105.51,5.508 c 2.65,-6.68 5,-13.508 6.99,-20.508 1.64,7.66 4.14,15.16 7.5,22.5 6.99,17 16.48,31.679 28.48,43.988 12.03,12.34 24.84,21.52 38.51,27.5 -16.99,-23.32 -31.83,-50 -44.49,-80 -10.35,-25 -19.02,-48.828 -26.02,-71.488 -0.66,-6.012 -1.83,-11.68 -3.47,-16.992 0,0.98 -0.2,1.992 -0.51,3.011 -0.35,-0.351 -0.51,-0.66 -0.51,-1.019 -0.66,2.66 -1.33,5.508 -1.99,8.519 -7.34,23.981 -16.33,49.34 -26.99,75.981 -13.01,30 -27.85,56.679 -44.53,80 13.67,-5.981 26.36,-15.16 38,-27.5 12,-12.352 21.68,-27 29.03,-43.992" /><path
         id="path18"
         style="fill:#8ad4de;fill-opacity:1;fill-rule:evenodd;stroke:none"
         d="m 1614.41,621.289 c 13.01,6.68 26.84,10.66 41.53,12.031 7.3,0.66 14.65,0.469 21.99,-0.511 7.34,-1.008 13.98,-3.008 20,-6.008 12.66,-6.641 19.14,-17 19.49,-30.981 0,-6.371 -1.83,-12.031 -5.51,-17.031 -3.98,-5 -8.98,-8.48 -15,-10.469 -3,-1.019 -5.97,-1.679 -8.98,-2.031 -1.02,0 -1.84,0 -2.5,0 h -0.51 c 0,0 -0.15,0 -0.51,0 h -1.48 c -1.02,0.352 -2.19,0.66 -3.52,1.012 -5.66,2.347 -9.49,6.488 -11.48,12.5 -0.66,3.008 -0.66,5.668 0,8.008 0.66,3.011 2.34,5.16 5,6.492 2.66,1.679 5.51,2.179 8.48,1.519 3,-1.371 4.68,-3.672 5,-7.031 0.66,3.359 -0.67,6.371 -3.99,9.02 -3.67,1.64 -7.5,1.839 -11.48,0.511 -3.67,-1.371 -6.53,-4.019 -8.52,-8.011 -1.99,-4.02 -2.65,-8.008 -1.99,-11.989 1.33,-9.019 6.17,-15.859 14.49,-20.511 1.68,-1.329 3.83,-2.188 6.49,-2.5 l 1.52,-0.508 h 0.98 l 0.5,-0.5 c 1.02,0 2.19,0 3.52,0 3.98,-0.321 8.16,0 12.5,1.008 8.98,1.992 16.84,6.492 23.48,13.48 6.36,7.691 9.84,16.52 10.5,26.52 0.36,9.339 -1.83,18.671 -6.48,28.011 -5.35,8.629 -12.5,15.16 -21.52,19.489 -8.64,4.339 -17.5,6.992 -26.49,8.011 -8.67,0.66 -17.34,0.469 -26.01,-0.511 -17,-2.649 -32.31,-8.36 -45.98,-16.989 -13.36,-9.019 -24.49,-19.34 -33.52,-31.019 -8.67,-11.68 -15.5,-23.672 -20.5,-36.012 7.69,10.66 16.52,20.859 26.52,30.512 10,9.679 21.33,17.847 33.98,24.488 M 1927.42,463.32 c -4.65,11.989 -11.83,21.481 -21.48,28.481 -4.69,3.668 -10,6.519 -16.02,8.508 -6.01,1.992 -11.99,2.812 -18.01,2.5 -11.99,-0.348 -22.5,-4.02 -31.48,-11.008 -4.69,-3.321 -8.52,-7.153 -11.52,-11.492 -0.98,-1.329 -1.84,-2.5 -2.5,-3.508 l -0.47,-0.981 c -0.35,-0.351 -0.51,-0.66 -0.51,-1.019 l -1.02,-1.481 c -1.32,-2.699 -2.34,-5.511 -3,-8.519 -0.98,-5.66 -0.82,-11.172 0.5,-16.481 1.68,-5.351 4.34,-9.84 8.01,-13.519 1.68,-1.992 3.67,-3.672 6.02,-5 l 1.48,-1.012 1.49,-0.98 c 1.36,-0.348 2.69,-0.661 4.02,-1.008 5.31,-1.332 10.31,-0.672 15,1.988 4.34,2.691 7.15,6.371 8.48,11.012 0.35,5.359 -1.49,9.179 -5.47,11.488 2.97,-3.32 3.83,-6.988 2.5,-10.98 -1.37,-3.36 -4.03,-5.661 -8.01,-6.989 -3.36,-1.019 -6.68,-0.859 -10,0.469 -1.02,0.352 -1.68,0.66 -1.99,1.012 l -1.53,1.019 c -0.31,0.309 -0.66,0.66 -0.97,0.981 -1.37,1.32 -2.5,2.648 -3.52,4.019 -3.98,6.641 -4.84,13.481 -2.5,20.469 0.67,1.68 1.33,3.16 1.99,4.531 l 1.02,1.481 c 0.31,0.359 0.51,0.508 0.51,0.508 l 0.47,0.511 c 0.35,0.66 1.01,1.328 2.03,1.989 2.65,3.011 5.66,5.511 8.98,7.5 6.99,3.992 14.34,5.82 21.99,5.511 8.01,-0.351 14.85,-3.011 20.51,-8.011 13.32,-11.68 18.17,-26.168 14.49,-43.508 -1.99,-8.68 -5.5,-16.84 -10.5,-24.5 -5,-7.653 -10.82,-14.84 -17.5,-21.481 -12.97,-13.011 -27.82,-23.011 -44.5,-30 -16.64,-7.031 -33.67,-11.371 -50.97,-13.011 -17.35,-1.989 -34.18,-2.34 -50.51,-1.008 15.66,-5 32.66,-8.012 50.98,-8.992 18.36,-1.008 37.18,1.332 56.52,6.992 19.34,6.019 37.15,16.179 53.48,30.508 8,7.351 15.19,15.511 21.52,24.492 6.33,9.648 10.82,20.359 13.48,32 3,11.988 2.5,24.179 -1.49,36.519 M 328.441,339.801 c 19.329,-5.66 38.161,-8 56.481,-6.992 18.316,0.98 35.348,3.992 51.019,8.992 -16.371,-1.332 -33.171,-0.981 -50.511,1.008 -17.34,1.64 -34.34,5.98 -51.02,13.011 -16.64,6.989 -31.48,16.989 -44.488,30 -6.684,6.641 -12.5,13.828 -17.5,21.481 -5,7.66 -8.512,15.82 -10.512,24.5 -3.672,17.34 1.18,31.828 14.5,43.508 5.66,5 12.5,7.66 20.5,8.011 7.66,0.309 15,-1.519 22,-5.511 3.36,-1.989 6.36,-4.489 9.02,-7.5 0.98,-0.661 1.64,-1.329 1.992,-1.989 l 0.508,-0.511 c 0,0 0.16,-0.149 0.511,-0.508 l 0.969,-1.481 c 0.668,-1.371 1.328,-2.851 2,-4.531 2.692,-6.988 1.828,-13.828 -2.5,-20.469 -0.98,-1.371 -2.148,-2.699 -3.48,-4.019 -0.352,-0.321 -0.66,-0.672 -1.02,-0.981 l -1.48,-1.019 c -0.352,-0.352 -1.02,-0.66 -1.989,-1.012 -3.011,-1.328 -6.371,-1.488 -10,-0.469 -3.671,1.328 -6.371,3.629 -8.011,6.989 -1.328,3.992 -0.352,7.66 3.011,10.98 -4.339,-2.309 -6.171,-6.129 -5.511,-11.488 0.98,-4.641 3.672,-8.321 8.011,-11.012 4.649,-2.66 9.649,-3.32 15,-1.988 1.329,0 2.649,0.347 3.981,1.008 l 1.488,0.98 1.52,1.012 c 2.34,1.328 4.34,3.008 5.98,5 3.668,3.679 6.36,8.168 8,13.519 1.328,5.309 1.531,10.821 0.512,16.481 -0.66,3.008 -1.684,5.82 -3.012,8.519 l -0.969,1.481 c 0,0.359 -0.203,0.668 -0.511,1.019 l -0.508,0.981 c -0.66,1.008 -1.481,2.179 -2.5,3.508 -3.012,4.339 -6.832,8.171 -11.481,11.492 -9.031,6.679 -19.531,10.347 -31.531,11.008 -5.969,0.312 -11.988,-0.508 -18,-2.5 -5.98,-1.989 -11.332,-4.84 -15.98,-8.508 -9.692,-7 -16.84,-16.492 -21.52,-28.481 -3.988,-12.34 -4.5,-24.531 -1.488,-36.519 2.656,-11.641 7.148,-22.352 13.519,-32 6.329,-8.981 13.469,-17.141 21.481,-24.492 16.328,-14.329 34.18,-24.489 53.519,-30.508 m 390,385 c 5.309,-4.641 11.129,-8.321 17.5,-11.012 6.637,-2.66 13.629,-3.988 20.969,-3.988 7.352,0.359 14.18,2.148 20.512,5.508 6.019,3.671 10.816,8.32 14.488,13.992 1.68,2.648 3.168,5.5 4.5,8.508 l 0.5,2.5 0.512,1.992 c 0.348,2 0.508,3.828 0.508,5.508 0,6.992 -2.34,12.812 -6.989,17.5 -4.691,4.652 -10.203,6.992 -16.531,6.992 -6.32,-1.012 -10.308,-4.332 -11.988,-10 3.008,4.648 6.988,6.84 11.988,6.488 5,-0.98 8.828,-3.48 11.531,-7.5 2.297,-3.988 3.161,-8.32 2.5,-12.969 0,-1.019 -0.203,-2.031 -0.511,-3.011 l -1.02,-1.52 c 0,-0.309 -0.148,-0.82 -0.5,-1.488 -1.332,-1.992 -2.82,-3.981 -4.5,-6.012 -3,-3.32 -6.64,-5.82 -10.969,-7.5 -4.339,-1.641 -8.871,-2.309 -13.519,-1.988 -4.332,0.66 -8.672,2.179 -13.012,4.488 -4.332,2.691 -8.16,5.859 -11.48,9.531 -7.34,7.301 -11.989,15.821 -14.02,25.469 -2,9.691 -0.672,19.02 4.02,28.012 5,9.679 11.64,17.179 20,22.5 8.32,5.347 18.16,8 29.492,8 11.019,0.359 21.988,-1.481 33.008,-5.5 10.98,-3.68 21.64,-8.481 31.992,-14.5 20,-12.34 36.84,-27.653 50.508,-46.012 13.672,-18.629 24.34,-38.32 31.992,-58.988 7.66,-21.012 13.168,-41.832 16.488,-62.5 1.36,21.019 -0.16,43.008 -4.5,66.019 -4.328,22.66 -13,45.16 -25.969,67.5 -10,16.328 -22.703,31.129 -38.011,44.489 -7.34,10.98 -13.008,23.171 -16.989,36.492 -4.339,13.668 -5.863,27.847 -4.531,42.5 0.66,7.34 2.18,14.488 4.531,21.519 1.989,6.989 5.149,13.321 9.489,18.981 8.672,11.328 19.84,15.82 33.48,13.519 6.36,-1.019 11.52,-3.871 15.5,-8.519 4.34,-4.332 7,-9.641 8.012,-16.012 0.668,-3.32 0.816,-6.488 0.508,-9.488 -0.352,-0.981 -0.508,-1.84 -0.508,-2.5 v -0.512 c 0,0 0,-0.16 0,-0.469 l -0.512,-1.019 c -0.308,-1.321 -0.82,-2.653 -1.48,-3.981 -3.008,-5 -7.66,-7.851 -14.02,-8.519 -2.969,-0.66 -5.82,-0.352 -8.48,1.019 -2.34,0.981 -4.18,2.969 -5.508,5.981 -1.012,3 -0.82,5.859 0.508,8.508 1.64,2.66 4.34,3.832 8.011,3.48 -3.671,1.371 -7.031,0.66 -10,-1.988 -2.351,-3.321 -3.171,-7 -2.5,-10.981 0.661,-4.019 2.809,-7.34 6.481,-10 0.668,-0.66 1.68,-1.371 3.008,-2.031 l 0.98,-0.469 1.52,-0.511 c 1.992,-0.661 3.98,-1.008 5.98,-1.008 4.328,-0.321 8.512,0.5 12.5,2.5 4.02,1.679 7.5,4.328 10.5,8 1.328,1.679 2.5,3.679 3.52,6.019 l 0.511,1.481 0.469,1.019 v 0.469 c 0.352,1.012 0.66,2.031 1.012,3.012 1.019,4.328 1.328,8.668 1.019,13 -0.351,9.34 -3.519,17.859 -9.531,25.508 -5.98,7.66 -13.988,12.5 -23.988,14.492 -9.332,2.347 -18.832,1.84 -28.512,-1.481 -9.648,-3.672 -17.308,-9.531 -22.969,-17.5 -6.019,-7.699 -10.203,-16.019 -12.5,-25 -2.351,-8.359 -3.671,-16.84 -4.031,-25.511 -0.308,-17.34 2.66,-33.508 9.031,-48.508 2.297,-5.672 5,-10.981 7.969,-15.981 -9.648,6.328 -20.16,11.481 -31.488,15.469 -13.32,5.352 -27.652,8.012 -43.012,8.012 -15.969,-0.321 -30.969,-4.852 -45,-13.481 -6.64,-4.34 -12.34,-9.691 -16.988,-16.019 -4.652,-6.012 -8.512,-12.34 -11.481,-18.981 -3.363,-7.031 -5.351,-14.531 -6.019,-22.5 -0.352,-8.011 0.508,-15.66 2.5,-23.011 4.34,-14.688 12.148,-26.52 23.519,-35.508 m -249.031,-178 c 4.34,-0.981 8.68,-1.492 13.012,-1.492 1.019,0 1.988,0 3.008,0 h 1.992 l 1.019,0.511 c 2.649,0.309 5,0.981 6.989,1.989 4.34,1.992 7.808,4.652 10.511,8.011 2.649,3.629 4.329,7.5 5,11.481 0.309,2 0.469,3.988 0.469,6.019 l -0.469,1.989 v 0.98 c -0.351,1.371 -0.671,2.5 -1.019,3.512 -1.992,3.988 -4.844,6.84 -8.512,8.519 -3.64,1.328 -7.308,1.328 -10.98,0 -3.668,-2.34 -5.16,-5.351 -4.489,-9.019 0.309,3.668 1.989,6.008 5,6.988 3.321,0.66 6.129,0 8.469,-1.988 2.66,-1.641 4.34,-3.832 5,-6.492 0.36,-2.649 0,-5.508 -0.969,-8.508 -2.351,-5.672 -6.371,-9.5 -12.031,-11.492 -1.332,-0.348 -2.66,-0.508 -3.988,-0.508 h -1.012 c -0.672,0 -0.82,0 -0.469,0 h -0.511 c -1.02,0 -1.84,0 -2.5,0 -3.008,0.359 -6.02,1.179 -9.02,2.5 -5.98,2.347 -10.82,6.179 -14.5,11.488 -3.32,5 -4.64,10.66 -3.98,17.031 0.66,13.981 7.66,23.981 20.98,30 6.36,2.66 13.16,4.141 20.5,4.489 7.352,0.671 14.692,0.511 22,-0.508 14.328,-2.34 27.852,-7.141 40.5,-14.492 12.352,-7.34 23.168,-16.168 32.5,-26.52 9.34,-10 17.5,-20.668 24.5,-31.988 -4.34,12.34 -10.469,24.679 -18.48,36.988 -8.008,12.34 -18.52,23.359 -31.52,33.012 -12.66,9.679 -27.66,16.168 -45,19.488 -8.32,1.68 -16.84,2.34 -25.469,2.031 -9.339,-0.351 -18.363,-2.34 -27.031,-6.019 -9.34,-3.981 -16.84,-10.153 -22.5,-18.512 -5.672,-8.629 -8.32,-17.809 -7.969,-27.5 -0.351,-10 2.5,-18.988 8.469,-26.988 6.328,-7.352 13.828,-12.352 22.5,-15 m 852,305 c 4.02,13.668 5.5,27.847 4.53,42.5 -0.67,7.34 -2.19,14.488 -4.53,21.519 -2,6.989 -5.16,13.321 -9.5,18.981 -8.67,11.328 -20,15.82 -33.98,13.519 -6.02,-1.019 -11.17,-3.871 -15.51,-8.519 -3.98,-4.332 -6.68,-9.641 -8.01,-16.012 -0.31,-3.32 -0.31,-6.488 0,-9.488 0,-0.981 0.16,-1.84 0.51,-2.5 v -0.512 c 0,0 0,-0.16 0,-0.469 l 0.51,-1.019 c 0.31,-1.321 0.82,-2.653 1.48,-3.981 3.01,-5 7.66,-7.851 14.03,-8.519 2.97,-0.66 5.82,-0.352 8.47,1.019 2.35,0.981 4.18,2.969 5.51,5.981 1.02,3 0.82,5.859 -0.51,8.508 -1.64,2.66 -4.33,3.832 -8,3.48 3.67,1.371 6.83,0.66 9.53,-1.988 2.65,-3.321 3.63,-7 2.97,-10.981 -0.98,-4.019 -3.17,-7.34 -6.49,-10 -1.01,-0.66 -1.99,-1.371 -3.01,-2.031 l -0.97,-0.469 -1.53,-0.511 c -1.99,-0.661 -3.98,-1.008 -5.97,-1.008 -4.34,-0.321 -8.52,0.5 -12.5,2.5 -4.03,1.679 -7.5,4.328 -10.51,8 -1.33,1.679 -2.5,3.679 -3.52,6.019 l -0.5,1.481 -0.47,1.019 v 0.469 c -0.35,1.012 -0.67,2.031 -1.02,3.012 -1.01,4.328 -1.33,8.668 -1.01,13 0.35,9.34 3.51,17.859 9.53,25.508 5.97,7.66 13.98,12.5 23.98,14.492 8.99,2.347 18.52,1.84 28.52,-1.481 9.65,-3.672 17.3,-9.531 22.97,-17.5 5.66,-7.699 9.84,-16.019 12.5,-25 2.34,-8.359 3.67,-16.84 4.02,-25.511 0.31,-17.34 -2.66,-33.508 -9.02,-48.508 -2.31,-5.672 -5.16,-10.981 -8.48,-15.981 10,6.328 20.51,11.481 31.48,15.469 13.68,5.352 28.17,8.012 43.52,8.012 15.98,-0.321 30.82,-4.852 44.49,-13.481 6.68,-4.34 12.5,-9.691 17.5,-16.019 4.65,-6.012 8.52,-12.34 11.49,-18.981 3.36,-7.031 5.19,-14.531 5.5,-22.5 0.67,-8.011 0,-15.66 -1.99,-23.011 -4.65,-14.688 -12.5,-26.52 -23.51,-35.508 -5.67,-4.641 -11.64,-8.321 -17.97,-11.012 -6.37,-2.66 -13.36,-3.988 -21.02,-3.988 -7.34,0.359 -13.98,2.148 -20,5.508 -6.01,3.671 -10.82,8.32 -14.49,13.992 -1.99,2.648 -3.52,5.5 -4.49,8.508 l -1.02,2.5 -0.51,1.992 c 0,2 -0.15,3.828 -0.5,5.508 0.35,6.992 2.85,12.812 7.5,17.5 4.33,4.652 9.68,6.992 16.01,6.992 6.68,-1.012 10.82,-4.332 12.5,-10 -3.01,4.648 -7.15,6.84 -12.5,6.488 -4.65,-0.98 -8.32,-3.48 -11.01,-7.5 -2.66,-3.988 -3.64,-8.32 -2.97,-12.969 0.31,-1.019 0.66,-2.031 0.97,-3.011 l 1.02,-1.52 c 0,-0.309 0.16,-0.82 0.51,-1.488 1.33,-1.992 2.65,-3.981 3.98,-6.012 3.32,-3.32 7.15,-5.82 11.49,-7.5 4.33,-1.641 8.86,-2.309 13.51,-1.988 3.99,0.66 8.17,2.179 12.5,4.488 4.34,2.691 8.32,5.859 11.99,9.531 7.35,7.301 12,15.821 14.03,25.469 1.64,9.691 0.15,19.02 -4.53,28.012 -4.65,9.679 -11.14,17.179 -19.5,22.5 -8.67,5.347 -18.47,8 -29.49,8 -11.01,0.359 -22.15,-1.481 -33.51,-5.5 -10.98,-3.68 -21.49,-8.481 -31.49,-14.5 -20,-12.34 -36.99,-27.653 -51.01,-46.012 -13.64,-18.629 -24.14,-38.32 -31.49,-58.988 -7.65,-21.012 -13.16,-41.832 -16.48,-62.5 -1.37,21.019 0.15,43.008 4.49,66.019 4.34,22.66 13.01,45.16 25.98,67.5 9.68,16.328 22.18,31.129 37.5,44.489 7.34,10.98 13.16,23.171 17.5,36.492" /><path
         id="path20"
         style="fill:#263869;fill-opacity:1;fill-rule:nonzero;stroke:none"
         d="M 392.93,771.41 318.871,668.281 307.93,676.09 c 3.121,4.379 6.129,9.14 9.058,14.379 3.012,5.312 5.313,11.871 6.883,19.691 -1.172,2.57 -3.09,4.84 -5.781,6.719 -1.059,0.699 -2.309,1.242 -3.75,1.562 L 229.488,739.84 147.461,625.781 186.52,562.5 c 3.64,-5 7.5,-8.98 11.57,-11.879 8.121,-1.359 14.68,0.039 19.68,4.219 5.082,4.14 10.82,10.711 17.191,19.691 l 10.937,-7.812 -65.16,-90.938 -10.937,7.809 c 5.429,7.5 8.91,13.211 10.469,17.191 1.57,4.059 1.449,9.449 -0.309,16.25 L 3.55078,821.41 13.2383,834.691 339.488,762.031 c 17.274,-3.98 31.453,1.758 42.5,17.188 z M 208.238,743.91 55.5898,779.059 136.988,644.84 Z" /><path
         id="path22"
         style="fill:#263869;fill-opacity:1;fill-rule:nonzero;stroke:none"
         d="m 588.52,924.84 6.871,-9.219 -57.969,-43.43 L 512.891,905 c -3.442,-19.301 -7.032,-33.98 -10.782,-44.059 -5.937,-16.562 -14.058,-28.711 -24.379,-36.41 -15,-11.25 -29.8,-17.152 -44.371,-17.652 -16.558,-0.75 -30.347,6.242 -41.41,20.93 -13.508,18.132 -18.199,37.269 -14.058,57.5 3.359,16.25 12.769,33.91 28.281,52.972 8.75,10.699 24.058,26.719 45.937,47.969 l -16.558,22.03 c -4.301,5.82 -13.602,8.6 -27.973,8.28 -16.558,-0.11 -30.816,-4.68 -42.808,-13.75 -11.45,-8.548 -18.129,-18.509 -20,-29.841 -1.649,-9.61 0.07,-20.778 5.152,-33.59 l -12.973,-5.789 -15.929,24.219 c 4.679,12.703 8.75,22.582 12.179,29.691 10.629,22.07 21.84,37.5 33.602,46.25 16.558,12.38 34.648,18.95 54.219,19.69 19.57,0.7 33.039,-3.87 40.46,-13.75 l 86.571,-115.78 c 4.14,-5.551 8.937,-8.558 14.371,-9.07 7.269,-0.86 15.976,2.5 26.098,10 z m -87.348,-14.68 c -0.313,2.262 -0.582,4.762 -0.781,7.5 -0.121,2.809 -1.051,5.391 -2.813,7.809 l -34.379,46.09 c -20.109,-14.918 -34.84,-31.95 -44.219,-51.09 -11.441,-23.129 -10.859,-43.129 1.719,-60 5.629,-7.418 13.75,-11.949 24.379,-13.59 10.703,-1.57 20,0.543 27.813,6.402 8.007,6.02 14.257,13.828 18.75,23.438 4.449,9.57 7.66,20.703 9.531,33.441 z" /><path
         id="path24"
         style="fill:#263869;fill-opacity:1;fill-rule:nonzero;stroke:none"
         d="m 869.84,1048.52 5.32,-13.6 -76.101,-30 -15.778,40 c -6.25,-17.11 -14.922,-32.34 -25.941,-45.779 -10.93,-13.442 -24.02,-23.2 -39.219,-29.219 C 690.199,958.98 665,959.84 642.5,972.578 c -22.5,12.692 -40.469,36.092 -53.91,70.152 -13.121,33.44 -12.031,65.2 3.289,95.32 14.492,28.12 37.34,48.32 68.59,60.62 10,3.95 20,6.56 30,7.81 10.082,1.25 20.082,0.79 30,-1.4 l -35.309,89.84 c -2.5,6.45 -10.43,8.36 -23.75,5.78 -4.379,-1.05 -10.789,-3.04 -19.219,-5.93 l -4.691,12.03 c 13.121,7.58 24.879,14.92 35.309,22.03 3.953,2.58 15.55,10.35 34.851,23.28 l 116.399,-296.56 c 3.441,-8.67 9.461,-13.44 18.132,-14.38 5.821,-0.43 12.649,0.86 20.469,3.91 1.559,0.62 3.199,1.29 5,2.03 0.699,0.31 1.442,0.78 2.18,1.41 z M 729.531,1006.8 c 16.449,6.44 28.168,17.89 35.16,34.37 6.95,16.45 7.219,32.89 0.778,49.38 l -29.219,74.53 c -2.422,5.94 -13.09,10.23 -32.031,12.97 -18.989,2.69 -34.649,1.64 -47.028,-3.13 -19.812,-10.31 -32.742,-26.05 -38.75,-47.19 -5.941,-21.05 -4.691,-42.46 3.75,-64.21 9.137,-23.25 23.321,-40.47 42.5,-51.72 20.93,-12.191 42.539,-13.87 64.84,-5 z" /><path
         id="path26"
         style="fill:#263869;fill-opacity:1;fill-rule:nonzero;stroke:none"
         d="m 1178.79,1078.05 1.09,-13.44 -76.56,-6.09 -12.19,155 c -1.05,13 -7.5,23.36 -19.37,31.09 -11.8,7.69 -24.49,11.01 -38.13,10 -14.68,-1.17 -28.43,-7.15 -41.251,-17.97 -12.809,-10.86 -18.75,-22.62 -17.809,-35.31 l 9.84,-123.75 c 0.391,-6.17 7.07,-10.24 20,-12.19 4.07,-0.74 10.39,-1.25 19.07,-1.56 l 0.93,-11.56 -119.058,-9.38 -0.942,11.56 c 8.641,0.71 15.078,1.57 19.379,2.5 13.121,3.32 19.371,8.64 18.75,15.94 l -22.34,283.75 c -0.429,5.94 -3.051,10.08 -7.82,12.5 -4.68,2.5 -10.578,3.48 -17.649,2.97 -2.191,-0.23 -4.57,-0.63 -7.191,-1.25 -0.937,0 -3.59,-0.63 -7.969,-1.88 l -0.941,12.82 c 13.133,2.38 26.41,5.66 39.851,9.84 6.559,1.76 19.918,6.13 40.149,13.13 l 13.281,-169.54 c 12.578,14.77 22.969,25.47 31.1,32.04 13.2,10.7 26.64,16.6 40.31,17.65 20.2,1.56 38.67,-1.8 55.47,-10 19.76,-9.8 30.39,-24.33 31.87,-43.59 l 11.25,-141.25 c 0.51,-6.88 6.8,-10.7 18.91,-11.41 6.13,-0.23 12.11,-0.43 17.97,-0.62 z" /><path
         id="path28"
         style="fill:#263869;fill-opacity:1;fill-rule:nonzero;stroke:none"
         d="m 1310.94,1382.85 c 7.26,-1.05 13.04,-4.53 17.34,-10.47 4.26,-5.93 5.86,-12.93 4.84,-20.93 -1.05,-7.31 -4.53,-13.09 -10.46,-17.35 -5.94,-4.18 -12.78,-5.74 -20.47,-4.69 -7.5,1.02 -13.4,4.54 -17.66,10.47 -4.18,5.94 -5.74,12.85 -4.69,20.78 1.02,7.27 4.46,13.05 10.32,17.35 5.93,4.26 12.85,5.86 20.78,4.84 z m 15.78,-331.09 -1.56,-11.41 -114.54,15.31 1.57,11.41 c 2.26,-0.31 4.1,-0.55 5.47,-0.62 7.89,-1.18 15.07,-1.33 21.56,-0.47 6.44,0.82 10.04,3.9 10.78,9.22 l 20.31,151.09 c 0.94,7.5 -0.93,13.2 -5.62,17.19 -4.61,4.06 -11.17,6.64 -19.69,7.81 -2.42,0.31 -5.94,0.47 -10.62,0.47 l 1.71,12.34 c 13.44,0.2 26.96,1.02 40.63,2.5 13.75,1.56 27.19,3.99 40.31,7.35 l 3.44,-5.47 -26.88,-199.53 c -0.74,-6.06 2.89,-10.47 10.94,-13.29 3.2,-1.01 10.63,-2.34 22.19,-3.9 z" /><path
         id="path30"
         style="fill:#263869;fill-opacity:1;fill-rule:nonzero;stroke:none"
         d="m 1577.77,1200.47 c -4.37,-7.81 -8.24,-15.94 -11.56,-24.38 -3.36,-8.36 -6.48,-17.46 -9.37,-27.34 -2.82,-0.23 -5.55,0.63 -8.13,2.5 -2.81,6.76 -5.27,11.8 -7.34,15.16 -5,7.81 -11.84,13 -20.47,15.62 -7.31,2.19 -16.21,1.25 -26.72,-2.81 -10.55,-4.06 -18.52,-9.84 -23.91,-17.34 l -37.5,-123.44 c -1.48,-5.08 1.76,-9.85 9.69,-14.22 7.89,-4.45 16.49,-8.13 25.78,-10.94 3.44,-1.01 5.47,-1.64 6.1,-1.87 0.31,-0.08 0.66,-0.2 1.09,-0.32 l -3.44,-11.09 -125.94,38.12 3.44,11.1 c 8.63,-2.62 15.04,-4.38 19.22,-5.31 13.2,-2.31 20.82,-0.28 22.81,6.09 l 48.28,159.22 c 0.82,2.58 -1.05,5.08 -5.62,7.5 -4.49,2.38 -9.77,4.53 -15.78,6.4 -3.56,1.02 -6.88,2.04 -10,2.97 -1.06,0.32 -2.58,0.63 -4.53,0.94 l 3.28,12.03 c 25.08,-4.37 52.26,-5.54 81.56,-3.44 l 2.19,-5.78 -14.38,-47.5 c 11.33,9.57 20.55,16.41 27.66,20.47 22.19,12.39 42.34,15.82 60.47,10.31 6.13,-1.87 10.51,-6.09 13.12,-12.65 z" /><path
         id="path32"
         style="fill:#263869;fill-opacity:1;fill-rule:nonzero;stroke:none"
         d="m 1731.09,884.57 -5.62,-10.16 -63.28,35.469 20,35.781 c -18.99,-4.762 -33.83,-7.539 -44.53,-8.281 -17.62,-1.25 -32.04,1.25 -43.28,7.5 -16.49,9.18 -27.9,20.32 -34.22,33.441 -7.31,14.77 -6.49,30.2 2.5,46.25 11.01,19.69 26.56,31.76 46.56,36.25 16.25,3.52 36.29,2.11 60.16,-4.22 13.2,-3.55 33.98,-11.01 62.34,-22.34 l 13.44,24.06 c 3.51,6.33 2.26,15.98 -3.75,28.91 -6.88,15 -16.88,26.13 -30,33.43 -12.43,6.96 -24.22,8.95 -35.47,5.94 -9.49,-2.3 -19.06,-8.4 -28.75,-18.28 l -10.63,9.53 15.78,24.38 c 13.52,0.93 24.22,1.25 32.04,0.93 24.45,-0.74 43.12,-4.68 55.93,-11.87 18.13,-10.12 31.45,-23.99 40,-41.56 8.64,-17.62 10,-31.8 4.07,-42.5 l -70.63,-126.101 c -3.36,-6.129 -4.18,-11.75 -2.5,-16.867 2.27,-6.961 8.91,-13.524 19.84,-19.692 z m -48.9,73.91 c 1.95,1.051 4.14,2.258 6.56,3.59 2.5,1.25 4.45,3.239 5.94,5.942 l 28.12,50.148 c -21.79,12.19 -43.36,18.68 -64.69,19.54 -25.85,0.93 -43.86,-7.78 -54.06,-26.1 -4.61,-8.12 -5.43,-17.42 -2.5,-27.811 2.89,-10.391 8.64,-18.008 17.19,-22.809 8.63,-4.89 18.28,-7.39 28.91,-7.5 10.62,-0.199 22.11,1.481 34.53,5 z" /><path
         id="path34"
         style="fill:#263869;fill-opacity:1;fill-rule:nonzero;stroke:none"
         d="m 2092.07,848.711 -9.22,-9.691 c -10.86,10.429 -22.62,13.128 -35.31,8.128 l -275.16,-112.66 c -24.18,-10 -39.57,-15.308 -46.25,-15.937 -16.13,-1.641 -31.72,4.687 -46.72,19.07 -6.75,6.359 -11.17,11.828 -13.28,16.399 -2.18,4.609 -2.81,9.031 -1.87,13.281 l 31.4,15.629 c 3.05,-2.809 5.12,-8.321 6.25,-16.559 1.06,-8.211 3.83,-14.461 8.29,-18.75 7.81,-7.5 18.28,-8.949 31.4,-4.383 l 71.25,25.313 c 1.64,0.629 3.36,1.679 5.16,3.129 1.44,1.558 2.97,2.968 4.53,4.218 l 81.56,204.063 c 3.01,6.879 3.67,13.629 2.03,20.309 -1.68,6.76 -5.31,12.82 -10.93,18.13 l 9.21,9.69 81.72,-78.129 -9.22,-9.691 c -3.43,3.21 -7.46,6.289 -12.03,9.218 -11.36,7.274 -19.14,8.75 -23.28,4.383 -0.55,-0.43 -1.21,-1.641 -2.03,-3.601 l -62.34,-152.649 144.84,64.059 c 4.69,2.5 7.7,4.449 9.06,5.781 4.46,4.57 4.57,10.309 0.32,17.187 -6.49,8.122 -11.18,13.75 -14.07,16.872 l 9.22,9.691 z" /><path
         id="path36"
         style="fill:#263869;fill-opacity:1;fill-rule:nonzero;stroke:none"
         d="m 2073.71,483.551 -9.84,-6.09 -38.28,61.559 34.84,21.57 c -18.87,5.109 -33.24,9.961 -43.13,14.531 -15.93,7.418 -27.34,16.559 -34.21,27.5 -9.93,15.93 -14.46,31.207 -13.6,45.777 0.82,16.481 8.99,29.532 24.53,39.223 19.26,11.867 38.68,14.918 58.28,9.219 15.94,-4.809 32.74,-15.75 50.47,-32.82 10,-9.571 24.61,-26.168 43.91,-49.84 l 23.44,14.531 c 6.13,3.75 9.68,12.809 10.62,27.187 1.14,16.481 -2.19,31.012 -10,43.75 -7.62,12.192 -16.99,19.692 -28.12,22.5 -9.5,2.383 -20.86,1.641 -34.07,-2.187 l -4.68,13.437 25.62,13.75 c 12.27,-5.859 21.8,-10.738 28.6,-14.687 21.01,-12.5 35.39,-25 43.12,-37.5 10.94,-17.621 15.86,-36.172 14.84,-55.781 -0.93,-19.571 -6.67,-32.578 -17.18,-39.059 l -122.82,-76.25 c -5.93,-3.641 -9.37,-8.133 -10.31,-13.441 -1.36,-7.27 1.29,-16.25 7.97,-26.879 z m -7.34,88.437 c 2.38,0 4.92,-0.039 7.65,-0.148 2.82,-0.078 5.51,0.699 8.13,2.34 l 48.9,30.308 c -13.24,21.25 -28.9,37.422 -47.03,48.442 -22.18,13.359 -42.18,14.449 -60,3.281 -7.93,-4.883 -13.12,-12.582 -15.62,-23.121 -2.5,-10.629 -1.21,-20.039 3.9,-28.289 5.2,-8.43 12.39,-15.231 21.57,-20.461 9.25,-5.32 20.08,-9.418 32.5,-12.352 z" /></g></g></svg>